<?xml version="1.0" encoding="UTF-8"?>
<svg id="_圖層_2" data-name="圖層_2" xmlns="http://www.w3.org/2000/svg" viewBox="0 0 386.78 488.9">
  <defs>
    <style>
      .cls-1 {
        fill: #171413;
      }

      .cls-2 {
        fill: #fff;
        stroke: #97c8c9;
        stroke-linejoin: round;
        stroke-width: 8.1px;
      }

      .cls-3 {
        fill: #a9d8ec;
      }

      .cls-4 {
        fill: #f6d654;
      }
    </style>
  </defs>
  <g id="_圖層_1-2" data-name="圖層_1">
    <g>
      <g id="_圖層_1-3" data-name="_圖層_1">
        <ellipse class="cls-4" cx="193.39" cy="458.69" rx="176.87" ry="30.21"/>
        <path class="cls-2" d="M193.39,4.05c139,0,189.34,113.61,189.34,239.91s-63.04,202.04-189.34,202.04S4.05,382.95,4.05,243.96,54.4,4.05,193.39,4.05Z"/>
      </g>
      <g>
        <path class="cls-1" d="M266,183.11c-10.6-.85-20.05-4.04-27.71-11.86-1.98-2.02-4.96-2.43-7.07.1-1.71,2.06-1.39,4.82.74,6.19,6.77,4.37,4.48,8.42,1.42,14.32-6.35,12.2.87,27.2,11.92,26.88,9.06-.27,15.08-8.23,14.57-20.12-.19-4.48-1.04-8.08,5.61-6.33,2.63.69,5.67-.38,6.11-3.62.52-3.82-2.45-5.31-5.59-5.57Z"/>
        <path class="cls-1" d="M214.72,243.34c-7.98-7.49-17.71-10.14-26.97-10.17-13.49.14-24.31,3.7-33.14,12.23-2,1.94-5.11,3.98-2.46,7.5,2.76,3.65,5.57,2.3,8.5-.05,15.77-12.62,31.99-13.19,48.55-1.55,2.8,1.96,6.03,4.35,8.59.55,2.31-3.43-.59-6.17-3.08-8.5Z"/>
        <path class="cls-3" d="M324.85,173.17c-2.57-12.14-8.38-23-14.28-33.79-3.46-6.34-7.18-4.96-10.15.07-6.42,10.89-12.25,22.17-14.56,34.71-2.4,13.04,6.29,23.17,19.18,23.29,14.27.13,22.8-10.15,19.81-24.28Z"/>
        <path class="cls-1" d="M131.88,179.54c2.55-2.06,5.27-5.12,2-8.37-2.99-2.96-6.15-.98-8.64,1.49-6.18,6.14-13.81,8.81-22.3,9.51l-6.01,1.47s0,0,0,0c0,0,0,0,0,0-3.32,2.73-4.51,7.02-.49,7.74.27.05.56.08.87.1,9.18.43,8.07,5.75,8.45,11.7.51,7.98,4.1,14.48,12.99,14.82,9.24.35,13.39-6.12,15.04-14.25,1.01-4.97.57-10.18-2.47-14.32-2.81-3.83-3.53-6.57.57-9.88Z"/>
      </g>
    </g>
  </g>
</svg>