<?xml version="1.0" encoding="UTF-8"?>
<svg id="_圖層_2" data-name="圖層_2" xmlns="http://www.w3.org/2000/svg" viewBox="0 0 386.78 488.9">
  <defs>
    <style>
      .cls-1 {
        fill: #171413;
      }

      .cls-2 {
        fill: #fff;
        stroke: #97c8c9;
        stroke-linejoin: round;
        stroke-width: 8.1px;
      }

      .cls-3 {
        fill: #a9d8ec;
      }

      .cls-4 {
        fill: #e8625e;
      }
    </style>
  </defs>
  <g id="_圖層_1-2" data-name="圖層_1">
    <g>
      <g id="_圖層_1-3" data-name="_圖層_1">
        <ellipse class="cls-4" cx="193.39" cy="458.69" rx="176.87" ry="30.21"/>
        <path class="cls-2" d="M193.39,4.05c139,0,189.34,113.61,189.34,239.91s-63.04,202.04-189.34,202.04S4.05,382.95,4.05,243.96,54.4,4.05,193.39,4.05Z"/>
      </g>
      <g>
        <path class="cls-4" d="M237.79,239.01c.22-11.23-2.64-18.53-7.84-24.89-15.06-18.4-47.22-21.97-65.97-7.3-8.37,6.55-14.26,14.89-16.2,25.49-2.36,12.88,5.03,22.11,17.46,19.62,18.89-3.78,37.32-3.36,56.22-.45,11.91,1.84,16.27-3.29,16.34-12.46Z"/>
        <path class="cls-1" d="M237.79,239.01c-.06,9.17-4.43,14.3-16.34,12.46-18.89-2.91-37.32-3.33-56.22.45-12.43,2.49-19.82-6.74-17.46-19.62,1.94-10.6,7.83-18.94,16.2-25.49,18.75-14.66,50.91-11.1,65.97,7.3,5.2,6.35,8.07,13.66,7.84,24.89ZM192.14,224.21c-10.48.97-20.14,3.09-27.26,11.19-1.86,2.11-5.19,4.12-3.18,7.54,1.57,2.68,4.84,2.02,7.34,1.52,16.16-3.24,32.25-4.28,48.41.12,2.34.64,5.59,1.47,6.95-1.86,1.21-2.96-1.14-4.98-2.79-6.99-7.75-9.47-18.87-10.22-29.47-11.53Z"/>
        <path class="cls-4" d="M192.14,224.21c10.6,1.31,21.73,2.06,29.47,11.53,1.64,2.01,4,4.03,2.79,6.99-1.36,3.32-4.61,2.5-6.95,1.86-16.16-4.4-32.25-3.36-48.41-.12-2.5.5-5.77,1.16-7.34-1.52-2.01-3.41,1.32-5.42,3.18-7.54,7.12-8.1,16.78-10.23,27.26-11.19Z"/>
        <g>
          <path class="cls-1" d="M268.46,187.97c-7.75-3.59-15.84-4.62-24.27-3.36-3.04.45-6.15.61-7.69-2.84-1.23-2.74-.31-5.15,1.72-7.24,9.07-9.39,19.89-15.44,32.98-16.82,3.24-.34,7.41-.27,8.16,3.84.74,4.03-3.51,3.97-6.08,5.16-4.95,2.3-13.59.95-14.18,6.65-.36,3.43,9.5,2.49,13.69,5.57,3.64,2.68,15.56,2.76,4.99,11.75-3.07-1.03-5.78-3.3-9.31-2.71Z"/>
          <path class="cls-1" d="M104.5,191c-3.09-11.28,6.96-10.63,12.67-13.63,3.35-1.76,10.35-1.09,10.16-4-.27-4.2-6.61-4.23-10.58-5.58-1.88-.64-3.81-1.12-5.73-1.6-2.45-.62-4.48-1.8-4.25-4.63.27-3.29,2.89-4.61,5.64-4.35,14.49,1.34,26.86,7.37,35.9,18.78,4.1,5.17,1.83,8.62-5.03,8.34-8.59-.35-17.23-1.01-25.27,3.14-5.2-1.49-8.59,3.97-13.52,3.53Z"/>
          <path class="cls-3" d="M104.5,191c4.93.44,8.32-5.02,13.52-3.53-2.19,8.67-4.25,17.38-6.63,25.99-1.89,6.81-5.58,12.13-13.38,12.8-5.97.52-10.6-2.09-12.71-7.59-2.72-7.1.16-13.1,5.62-17.71,4.28-3.61,9.04-6.67,13.58-9.97Z"/>
          <path class="cls-3" d="M268.46,187.97c3.54-.59,6.24,1.68,9.31,2.71,5.74,3.33,11.74,6.28,17.12,10.09,5.83,4.13,8.97,10.13,6.62,17.36-1.76,5.43-6.08,9.15-11.98,8.87-7.44-.36-12.1-4.93-14.02-12.11-2.39-8.96-4.71-17.94-7.05-26.92Z"/>
          <path class="cls-3" d="M302.52,267.41c-.55,6.02-4.49,9.63-11.02,9.65-6.4.02-10.2-4.02-9.57-10.23.7-7.01-.06-15.31,7.11-19.58,3.14-1.87,13.33,12.99,13.48,20.16Z"/>
          <path class="cls-3" d="M111.92,251.53c-.47,5.47-1.73,9.96-6.73,11.96-4.04,1.61-8,1.08-10.81-2.56-3.3-4.29-2.43-8.72.31-12.99.18-.28.31-.6.53-.85,3.72-4.32,5.57-13.27,12.04-11.23,5.89,1.86,2.53,10.8,4.67,15.67Z"/>
        </g>
      </g>
    </g>
  </g>
</svg>