<?xml version="1.0" encoding="UTF-8"?>
<svg id="_圖層_2" data-name="圖層_2" xmlns="http://www.w3.org/2000/svg" viewBox="0 0 386.78 488.9">
  <defs>
    <style>
      .cls-1 {
        fill: #171413;
      }

      .cls-2 {
        fill: #fff;
        stroke: #97c8c9;
        stroke-linejoin: round;
        stroke-width: 8.1px;
      }

      .cls-3 {
        fill: #a9d8ec;
      }
    </style>
  </defs>
  <g id="_圖層_1-2" data-name="圖層_1">
    <g>
      <g id="_圖層_1-3" data-name="_圖層_1">
        <ellipse class="cls-3" cx="193.39" cy="458.69" rx="176.87" ry="30.21"/>
        <path class="cls-2" d="M193.39,4.05c139,0,189.34,113.61,189.34,239.91s-63.04,202.04-189.34,202.04S4.05,382.95,4.05,243.96,54.4,4.05,193.39,4.05Z"/>
      </g>
      <g>
        <path class="cls-1" d="M270.49,213.33c.12,10.23-5.43,17.41-13.59,17.57-8.72.17-15.18-7.13-15.31-17.33-.13-10.06,6.29-18.25,14.44-18.42,8.16-.17,14.33,7.6,14.46,18.18Z"/>
        <path class="cls-1" d="M193.57,272.29c-12.85.27-23.2-5.2-31.88-14.13-2.48-2.56-5.42-5.86-1.83-9.49,4.14-4.18,6.27.17,8.7,2.68,14.97,15.43,34.24,15.16,49.79-.69,2.28-2.33,4.39-5.75,8.15-2.35,3.41,3.08,1.31,6.2-.74,8.81-8.18,10.39-19.19,14.96-32.19,15.18Z"/>
        <path class="cls-1" d="M144.59,213.33c-.09,9.92-5.99,17.44-13.81,17.62-8.53.19-15.05-7.34-15.13-17.47-.07-10.07,6.45-18.41,14.41-18.41,8.03,0,14.63,8.29,14.53,18.26Z"/>
        <path class="cls-1" d="M277.38,182.88c-10.91-.74-19.95-3.53-26.82-11.07-2.08-2.29-5.26-5.05-1.65-8.43,3.04-2.85,5.46-.56,7.54,1.73,5.5,6.04,12.57,8.27,20.45,8.63,3.83.18,7.97.7,7.42,5.72-.53,4.82-4.89,3.18-6.94,3.43Z"/>
        <path class="cls-1" d="M109.56,183.08c-3.04-.27-7,.2-7.15-4.55-.13-4.1,3.29-4.48,6.32-4.59,8.64-.32,16.27-2.68,21.77-9.9,1.98-2.6,4.55-2.77,6.85-.59,2.54,2.39,1.2,4.86-.57,7.03-6.96,8.56-16.29,12.08-27.23,12.61Z"/>
      </g>
    </g>
  </g>
</svg>