<?xml version="1.0" encoding="UTF-8"?>
<svg id="_圖層_2" data-name="圖層_2" xmlns="http://www.w3.org/2000/svg" viewBox="0 0 386.78 488.9">
  <defs>
    <style>
      .cls-1 {
        fill: #171413;
      }

      .cls-2 {
        fill: #fff;
        stroke: #97c8c9;
        stroke-linejoin: round;
        stroke-width: 8.1px;
      }

      .cls-3 {
        fill: #a9d8ec;
      }

      .cls-4 {
        fill: #d1e3e3;
        isolation: isolate;
        opacity: .6;
      }

      .cls-5 {
        fill: #e8625e;
      }
    </style>
  </defs>
  <g id="_圖層_1-2" data-name="圖層_1">
    <g>
      <g id="_圖層_1-3" data-name="_圖層_1">
        <ellipse class="cls-4" cx="193.39" cy="458.69" rx="176.87" ry="30.21"/>
        <path class="cls-2" d="M193.39,4.05c139,0,189.34,113.61,189.34,239.91s-63.04,202.04-189.34,202.04S4.05,382.95,4.05,243.96,54.4,4.05,193.39,4.05Z"/>
      </g>
      <g>
        <path class="cls-3" d="M110,234.54c-12.12,6.78-24.92,6.78-37.15.19-5.27-2.85-10.33-7.47-8.65-14.29,2.13-8.67,9.63-12.35,17.5-14.61,3.11-.89,6.6-.46,9.91-.62,7.45-.12,14.58.51,20.47,5.92,9.24,8.47,8.8,17.32-2.08,23.41Z"/>
        <path class="cls-1" d="M130.27,199.97c-8.07-.15-14.38-8.21-14.37-18.33.01-10.38,7.09-18.92,15.33-18.49,7.77.4,13.94,8.92,13.73,18.94-.23,10.46-6.45,18.03-14.69,17.88Z"/>
        <path class="cls-5" d="M237.44,229.21c-1.66,21.03-21.55,38.48-43.87,38.15-21.31-.31-42.52-19.7-43.18-39.57-.23-6.86,3-10.56,10.13-10.52,11.31.05,22.63.01,33.94,0,10.64-.01,21.31.38,31.93-.12,9.09-.43,11.72,3.7,11.05,12.06Z"/>
        <path class="cls-1" d="M256.64,200.23c-8.09-.28-14.11-8.21-14.05-18.52.06-10.88,6.56-19.02,14.94-18.72,8.08.29,14,8.15,13.99,18.57,0,10.98-6.37,18.97-14.88,18.67Z"/>
        <path class="cls-3" d="M322.89,222.99c-.41,7.59-5.5,11.63-12.25,14.08-4.77,1.74-9.62,2.47-13.79,2.09-16.59-.02-27.33-6.74-27.5-16.67-.18-9.99,10.58-17.05,26.22-17.14,5.62-.04,11.17-.31,16.52,2.45,6.38,3.3,11.2,7.56,10.8,15.19Z"/>
        <path class="cls-1" d="M226.39,217.15c-10.62.5-21.29.11-31.93.12-11.31.01-22.63.05-33.94,0-7.13-.04-10.36,3.66-10.13,10.52.66,19.87,21.87,39.26,43.18,39.57,22.32.33,42.21-17.12,43.87-38.15.67-8.36-1.96-12.49-11.05-12.06ZM217.41,252.17c-6.49,5.86-13.99,8.69-21.97,8.02-8.23.15-15.25-1.07-21.44-5.67-7.79-5.79-7.84-9.43.76-13.22,13.83-6.1,27.66-5.43,41.26,1.26,5.42,2.66,5.82,5.62,1.39,9.61Z"/>
      </g>
    </g>
  </g>
</svg>